<?xml version="1.0" encoding="UTF-8"?>
<svg width="16px" height="16px" viewBox="0 0 16 16" xmlns="http://www.w3.org/2000/svg" xmlns:xlink="http://www.w3.org/1999/xlink">
    <path d="M4.96875,3.890625 C5.134375,4.04375 5.3546875,4.1296875 5.584375,4.1296875 L10.115625,4.1296875 C10.4375,4.1296875 10.7328125,3.9625 10.890625,3.69375 C11.9578125,1.859375 12.028125,1.23125 11.8125,1.053125 C11.3734375,0.6875 9.890625,2.3140625 7.728125,2.2125 C6.984375,2.178125 6.3421875,1.9484375 5.825,1.6765625 C5.396875,1.453125 4.8578125,1.6078125 4.6265625,2.0203125 C4.546875,2.1625 4.4828125,2.3296875 4.45625,2.5203125 C4.3828125,3.0203125 4.5796875,3.5296875 4.96875,3.890625 Z M14.38125,10.034375 L12.7546875,6.615625 C12.2796875,5.61875 11.2125,4.9453125 10.290625,4.9453125 L5.7125,4.9453125 C4.790625,4.9453125 3.721875,5.61875 3.2484375,6.615625 L1.6203125,10.034375 C0.503125,12.3796875 0.9140625,14.9828125 2.95,14.9828125 L13.053125,14.9828125 C15.0875,14.9828125 15.4984375,12.3796875 14.38125,10.034375 L14.38125,10.034375 Z M10.6484375,7.734375 L9.128125,9.5578125 C9.0265625,9.6796875 9.1171875,9.8625 9.2796875,9.8625 L10.078125,9.8625 C10.2234375,9.8625 10.3171875,10.009375 10.2515625,10.134375 L9.9640625,10.6765625 C9.93125,10.7390625 9.8640625,10.778125 9.790625,10.778125 L8.88125,10.778125 C8.7734375,10.778125 8.6859375,10.8625 8.6859375,10.965625 C8.6859375,11.06875 8.7734375,11.153125 8.88125,11.153125 L10.0171875,11.153125 C10.15625,11.153125 10.25,11.2890625 10.196875,11.4125 L9.9609375,11.9515625 C9.93125,12.0203125 9.859375,12.065625 9.78125,12.065625 L8.88125,12.065625 C8.7734375,12.065625 8.6859375,12.15 8.6859375,12.253125 L8.6859375,13.065625 C8.6859375,13.16875 8.5984375,13.253125 8.490625,13.253125 L7.6390625,13.253125 C7.53125,13.253125 7.44375,13.16875 7.44375,13.065625 L7.44375,12.253125 C7.44375,12.15 7.35625,12.065625 7.2484375,12.065625 L6.078125,12.065625 C5.9703125,12.065625 5.8828125,11.98125 5.8828125,11.878125 L5.8828125,11.3390625 C5.8828125,11.2359375 5.9703125,11.1515625 6.078125,11.1515625 L7.253125,11.1515625 C7.3609375,11.1515625 7.4484375,11.0671875 7.4484375,10.9640625 C7.4484375,10.8609375 7.3609375,10.7765625 7.253125,10.7765625 L6.078125,10.7765625 C5.9703125,10.7765625 5.8828125,10.6921875 5.8828125,10.5890625 L5.8828125,10.046875 C5.8828125,9.94375 5.9703125,9.859375 6.078125,9.859375 L6.85625,9.859375 C7.021875,9.859375 7.1109375,9.6734375 7.00625,9.5515625 L5.440625,7.75 C5.334375,7.628125 5.425,7.4421875 5.590625,7.4421875 L6.4703125,7.4421875 C6.5265625,7.4421875 6.5796875,7.465625 6.615625,7.5046875 L7.965625,8.9703125 C8.046875,9.0578125 8.1890625,9.053125 8.2640625,8.9609375 L9.4515625,7.4984375 C9.4890625,7.453125 9.5453125,7.4265625 9.6046875,7.4265625 L10.4953125,7.4265625 C10.659375,7.4296875 10.75,7.6109375 10.6484375,7.734375 Z"></path>
</svg>