<?xml version="1.0" encoding="UTF-8"?>
<svg width="16px" height="16px" viewBox="0 0 16 16" version="1.1" xmlns="http://www.w3.org/2000/svg" xmlns:xlink="http://www.w3.org/1999/xlink">
    <title>1.通用组件/2.Icon图标/2.Fill填充/春播销售</title>
    <g id="1.通用组件/2.Icon图标/2.Fill填充/春播销售" stroke="none" stroke-width="1" fill="none" fill-rule="evenodd">
        <g id="编组">
            <rect id="矩形" fill="#D8D8D8" opacity="0" x="0" y="0" width="16" height="16"></rect>
            <path d="M5.63813636,6.81731818 C6.31777273,7.40277273 7.0725,7.62231818 8,7.62231818 L8.11104545,7.62072727 C8.95454545,7.59654545 9.68381818,7.32895455 10.3147727,6.81731818 C10.3860455,6.76227273 10.5053636,6.68654545 10.6479091,6.81731818 C11.2565909,7.41359091 11.9966818,7.65127273 12.8840909,7.62040909 C13.1368858,7.61189914 13.3876355,7.57192456 13.6305455,7.50140909 C13.8376818,7.44159091 14.0454545,7.58890909 14.0454545,7.80590909 L14.0454545,13.075 C14.0454545,14.1380455 13.1905,15 12.1360455,15 L8.4375,15 L8.43661804,12.6008108 C8.90898289,12.43369 9.7463215,12.04918 10.2070073,11.3134119 C10.8728329,10.2497823 10.5436081,8.875 10.5436081,8.875 C10.5436081,8.875 9.09070155,9.20478557 8.42235732,10.2682427 C8.19462707,10.6307105 8.08330178,11.0293035 8.03549073,11.3973053 L7.96663622,11.3973053 C7.91883894,11.0293035 7.80752409,10.6307105 7.57979384,10.2682427 C6.91144961,9.20478557 5.45854303,8.875 5.45854303,8.875 C5.45854303,8.875 5.12437092,10.2497823 5.79271514,11.3134119 C6.25435133,12.0481175 7.09043722,12.4325787 7.56332542,12.6000854 L7.5625,15 L3.86395455,15 C2.8095,15 1.95486364,14.1380455 1.95486364,13.075 L1.95454545,7.80622727 C1.95454545,7.58890909 2.162,7.44159091 2.36881818,7.50140909 C2.61184249,7.57189896 2.86269415,7.61187277 3.11559091,7.62040909 L3.21804545,7.62263636 C4.06695455,7.62486364 4.72972727,7.39036364 5.31422727,6.81731818 C5.46186364,6.67954545 5.52422727,6.71613636 5.63813636,6.81731818 Z M13.0909091,1 C14.1452709,1 15,1.85472911 15,2.90909091 L15,4.41631818 C15,5.63018182 14.0648636,6.684 12.8516364,6.726 C12.0251716,6.7554751 11.2504158,6.32460602 10.8394545,5.60695455 C10.7217273,5.40140909 10.4423636,5.37754545 10.3014091,5.56781818 C9.76183934,6.29774127 8.90770183,6.72805747 8,6.72727273 C7.09229817,6.72805747 6.23816066,6.29774127 5.69859091,5.56781818 C5.55731818,5.37754545 5.27827273,5.40140909 5.16022727,5.60695455 C4.74942394,6.32460778 3.97475056,6.75549917 3.14836364,6.726 C1.93513636,6.684 1,5.63209091 1,4.41822727 L1,3.14868182 C1,1.854 1.85495455,1 2.90909091,1 L13.0909091,1 Z" id="形状结合" fill="#595959"></path>
        </g>
    </g>
</svg>