<?xml version="1.0" encoding="UTF-8"?>
<svg width="16px" height="16px" viewBox="0 0 16 16" version="1.1" xmlns="http://www.w3.org/2000/svg" xmlns:xlink="http://www.w3.org/1999/xlink">
    <title>1.通用组件/2.Icon图标/2.Fill填充/订单管理</title>
    <g id="1.通用组件/2.Icon图标/2.Fill填充/订单管理" stroke="none" stroke-width="1" fill="none" fill-rule="evenodd">
        <rect id="矩形" fill="#000000" fill-rule="nonzero" opacity="0" x="0" y="0" width="16" height="16"></rect>
        <g id="订单" transform="translate(2.000000, 0.000000)" fill="#595959">
            <path d="M10.385707,1.53889648 L8.91348633,1.53889648 C8.943,1.62566211 8.943,1.71314844 8.943,1.79989648 C8.943,2.43926562 8.53096875,3.04855859 8.06010352,3.04855859 L3.93989648,3.04855859 C3.46901367,3.04855859 3.057,2.43926562 3.057,1.79989648 C3.057,1.71314844 3.057,1.62566211 3.08653125,1.53889648 L1.61429297,1.53889648 C0.496148437,1.53889648 0.231175781,2.23569336 0.231175781,3.25214844 L0.231175781,13.3287207 C0.231175781,14.4326621 0.613675781,15.0133379 1.67316211,15.0133379 L10.3268379,15.0133379 C11.3861484,15.0133379 11.7688242,14.4328379 11.7688242,13.3287207 L11.7688242,3.25214844 C11.7688242,2.23567578 11.5038516,1.53889648 10.385707,1.53889648 Z M3.0562793,7.81117578 L8.94336914,7.81117578 C9.17879297,7.81117578 9.35538281,8.0727207 9.35538281,8.30510352 C9.35538281,8.53731055 9.20814844,8.79829297 9.0022207,8.79829297 L2.99742773,8.79829297 C2.79132422,8.79829297 2.64426562,8.53729297 2.64426562,8.30510352 C2.64426562,8.0727207 2.82083789,7.81117578 3.0562793,7.81117578 Z M8.94282422,5.05285156 C9.09042773,5.05285156 9.23838281,5.17203125 9.31038281,5.33564844 L9.31361719,5.34320703 C9.31488281,5.34607227 9.31595508,5.3487793 9.31704492,5.35164453 C9.33629297,5.40044141 9.34889648,5.45155859 9.35357227,5.50214844 C9.35357227,5.50267578 9.35357227,5.5032207 9.35374805,5.50376562 C9.35429297,5.51023437 9.35483789,5.51689648 9.35520703,5.52338281 C9.35555859,5.53094141 9.35573437,5.5385 9.35573437,5.54623437 C9.35573437,5.77844141 9.12029297,6.04016211 8.91346875,6.04016211 L3.08653125,6.04016211 C2.87972461,6.04016211 2.64426562,5.77842383 2.64426562,5.54623437 C2.64426562,5.53867578 2.64444141,5.53094141 2.64481055,5.52338281 C2.64516211,5.51689648 2.64553125,5.51023437 2.64625195,5.50376562 C2.64625195,5.5032207 2.64625195,5.50267578 2.64642773,5.50214844 C2.65112109,5.45155859 2.66372461,5.40044141 2.68299023,5.35166211 C2.68404492,5.3487793 2.68531055,5.34607227 2.68640039,5.34320703 L2.68963477,5.33564844 C2.76163477,5.17201367 2.9097832,5.05285156 3.05719336,5.05285156 L8.9428418,5.05285156 L8.94282422,5.05285156 Z M9.03192773,11.4705723 L2.96807227,11.4705723 C2.76198633,11.4705723 2.5267207,11.1795137 2.5267207,10.918707 C2.5267207,10.6865 2.70329297,10.454293 2.93875195,10.454293 L9.06144141,10.454293 C9.29688281,10.454293 9.47347266,10.6865 9.47347266,10.918707 C9.47347266,11.1795137 9.23801367,11.4705723 9.03191016,11.4705723 L9.03192773,11.4705723 Z M4.44029297,2.4972207 L7.55970703,2.4972207 C7.91285156,2.4972207 8.23667578,2.14801367 8.23667578,1.74157227 C8.23667578,1.33513086 7.94238281,0.986855469 7.55970703,0.986855469 L4.44029297,0.986855469 C4.05779297,0.986855469 3.7635,1.30653125 3.7635,1.74158984 C3.7635,2.1775625 4.05761719,2.49723828 4.44029297,2.49723828 L4.44029297,2.4972207 Z" id="形状"></path>
        </g>
    </g>
</svg>