<?xml version="1.0" encoding="UTF-8"?>
<svg width="16px" height="16px" viewBox="0 0 16 16" version="1.1" xmlns="http://www.w3.org/2000/svg" xmlns:xlink="http://www.w3.org/1999/xlink">
    <title>1.通用组件/2.Icon图标/2.Fill填充/服务</title>
    <g id="1.通用组件/2.Icon图标/2.Fill填充/服务" stroke="none" stroke-width="1" fill="none" fill-rule="evenodd">
        <g id="编组" transform="translate(0.000000, 0.000000)" fill="#595959">
            <path d="M3.67670131,0.000879927142 C1.64620839,0.00101163801 0.000238494565,1.64708831 0.000238494565,3.67758123 C0.000238494565,5.70807416 1.64620839,7.35415083 3.67670131,7.35428254 L7.35516265,7.35428254 L7.35516265,3.67758124 C7.35467672,1.64685283 5.70830979,0.000879927142 3.67758133,0.000879927142 L3.67670131,0.000879927142 Z M15.8420242,3.67758124 C15.8420242,1.64650919 14.1955149,0 12.1644428,0 C10.1333708,0 8.48686153,1.64650919 8.48686153,3.67758124 L8.48686153,7.35428254 L12.1653228,7.35428254 C14.1959089,7.35428254 15.8420242,5.7081673 15.8420242,3.67758124 Z M0,12.1644428 C0,14.1952718 1.64631224,15.8415841 3.67714131,15.8415841 C5.70797038,15.8415841 7.35428263,14.1952718 7.35428263,12.1644428 L7.35428263,8.48774145 L3.67670131,8.48774145 C1.64611526,8.48774145 0,10.1338567 0,12.1644428 Z M12.1635628,8.48774103 L8.48510149,8.48774103 L8.48510149,12.1644428 C8.48510149,14.1955148 10.1316107,15.8420241 12.1626828,15.8420241 C14.1937549,15.8420241 15.8402646,14.1955148 15.8402646,12.1644428 C15.8407313,11.1891778 15.4535157,10.253723 14.7638992,9.5641064 C14.0742826,8.87448986 13.1388278,8.48727426 12.1635628,8.48774103 L12.1635628,8.48774103 Z" id="形状"></path>
        </g>
    </g>
</svg>