<?xml version="1.0" encoding="UTF-8"?>
<svg width="16px" height="16px" viewBox="0 0 16 16" version="1.1" xmlns="http://www.w3.org/2000/svg" xmlns:xlink="http://www.w3.org/1999/xlink">
    <title>1.通用组件/2.Icon图标/2.Fill填充/个人中心</title>
    <g id="1.通用组件/2.Icon图标/2.Fill填充/个人中心" stroke="none" stroke-width="1" fill="none" fill-rule="evenodd">
        <g id="yonghu" transform="translate(1.000000, 0.000000)" fill="#595959">
            <path d="M13.8544284,12.8068403 C13.9039227,12.96541 13.9417713,13.1706179 13.9650628,13.4193548 C13.9883543,13.6680917 14,13.4691022 14,13.7178391 C14,13.966576 13.9825314,14.202876 13.9505056,14.4267392 C13.9155684,14.6506024 13.8631626,14.8184998 13.7961997,14.9335406 C13.7467053,15.0081617 13.6040451,15.085892 13.3711305,15.1729499 C13.1382158,15.2600078 10.7071693,16 7.289147,16 C4.16517943,16 1.47501537,15.4589973 1.04703471,15.3563933 C0.619054072,15.2537893 0.362847964,15.1667314 0.272593538,15.0952196 C0.161959089,15.0081617 0.0804389683,14.7500972 0.0280331619,14.3179168 C-0.0243726298,13.8826273 -0.00399260698,13.7738049 0.0949961254,13.0959969 C0.156136223,12.7042363 0.304619292,12.405752 0.540445362,12.2067625 C0.779182873,12.0046638 1.06159187,11.846094 1.38184948,11.7310532 C1.70501854,11.6129032 3.2014951,11.0625729 3.54504418,10.9661873 C3.88859327,10.8698018 4.18847086,10.7329965 4.44467696,10.5526623 C4.65430012,10.415857 4.81442894,10.2821609 4.92797483,10.1546832 C5.04152072,10.0272056 5.12304084,9.89972792 5.16671234,9.77225028 C5.21038384,9.64477262 5.2336753,9.51418577 5.2336753,9.37427127 C5.2336753,9.23746598 5.22785244,9.08822384 5.21911813,8.92654488 C5.19873809,8.67158956 5.12304084,8.47570928 4.98911493,8.33890398 C4.85518901,8.2020987 4.70670593,8.05907498 4.53493138,7.90983286 C4.45341126,7.8352118 4.3864483,7.73260783 4.32530822,7.59891175 C4.26416812,7.46521567 4.21176233,7.33151959 4.16226797,7.19471431 C4.11277361,7.03614455 4.06327926,6.87135636 4.01378489,6.70345897 C3.9439105,6.68169448 3.87403611,6.64749317 3.80416172,6.59152738 C3.74302163,6.53867078 3.6789701,6.46404972 3.60909571,6.36766419 C3.53922133,6.27127864 3.48099267,6.13447336 3.42858688,5.95413913 C3.37909251,5.77691409 3.36162391,5.61212591 3.37909251,5.4691022 C3.39364968,5.3260785 3.41985257,5.20171005 3.46061263,5.09599688 C3.49846126,4.97784686 3.55960135,4.86902447 3.64112147,4.76020208 C3.63238716,4.35911386 3.64985577,3.95491642 3.70226157,3.55071898 C3.7401102,3.21181498 3.81289602,2.8511465 3.9177076,2.46871355 C4.02251918,2.08628059 4.17391371,1.74115816 4.37189114,1.43645548 C4.56113429,1.15040806 4.77075745,0.914108031 5.0036721,0.727555375 C5.23658674,0.541002719 5.47241281,0.394869797 5.71115031,0.289156625 C5.94988782,0.183443453 6.18862531,0.111931594 6.43318569,0.0652934375 C6.67483463,0.0248736875 6.9106607,0 7.1406639,0 C7.42598434,0 7.70548189,0.0373105313 7.96751087,0.111931594 C8.22953984,0.186552656 8.4741002,0.279828984 8.7041034,0.397979016 C8.93119518,0.516129031 9.13790691,0.643606688 9.3125929,0.786630391 C9.49310174,0.929654094 9.63576195,1.07578702 9.7463964,1.22502914 C9.9938682,1.56393314 10.1801999,1.93703847 10.3053915,2.34434511 C10.4305832,2.75165175 10.5179261,3.13408472 10.5645091,3.49475319 C10.6256492,3.91760589 10.6489406,4.3435678 10.6402063,4.7664205 C10.7100807,4.80684025 10.7653979,4.87213367 10.8032466,4.95919158 C10.8410952,5.03381264 10.8760324,5.12708897 10.8993239,5.245239 C10.9226153,5.36338902 10.9255268,5.50330352 10.9051467,5.67431013 C10.8760324,5.89817331 10.826538,6.07228914 10.7653979,6.20598522 C10.698435,6.3396813 10.6285606,6.44228525 10.5499519,6.51690633 C10.4596975,6.60396423 10.3665316,6.65993003 10.2675429,6.69102214 C10.2296943,6.85891953 10.1831113,7.02681694 10.133617,7.18227748 C10.0841226,7.31908277 10.025894,7.45588806 9.96475389,7.58647492 C9.89779093,7.720171 9.82791654,7.82277495 9.74930786,7.89739603 C9.65905343,7.98445394 9.57753331,8.05285658 9.49601319,8.11193159 C9.41449307,8.16789739 9.34753011,8.23008161 9.28639002,8.29226583 C9.22524993,8.35755927 9.17575557,8.43218033 9.13790694,8.52234744 C9.1000583,8.61251456 9.06803255,8.72133694 9.04765251,8.84881459 C9.01853818,9.00738436 9.00980388,9.16906333 9.01853818,9.33385152 C9.02727249,9.49553048 9.06803255,9.66342789 9.13790694,9.82510686 C9.20778133,9.98678583 9.32132722,10.1453556 9.48145603,10.2945977 C9.63867341,10.4438398 9.85411946,10.5744267 10.1219713,10.6925767 C10.3694431,10.7982899 10.6431178,10.8915662 10.9342611,10.9692965 C11.2283158,11.050136 12.4074462,11.5911387 12.6782094,11.7030703 C12.9489727,11.8150019 13.1935331,11.9549164 13.4060677,12.1228138 C13.6127794,12.3093665 13.7641739,12.5301205 13.8544284,12.8068403 L13.8544284,12.8068403 Z M7.23965266,14.9677419 C7.28914703,14.9677419 7.36484428,14.9335406 7.46965587,14.865138 C7.57446745,14.7936261 7.67636761,14.7158958 7.77535633,14.6195103 C7.87434504,14.5231247 7.96168803,14.4267392 8.03447386,14.3334629 C8.11017111,14.2370773 8.14510831,14.1655655 8.14510831,14.1095997 C8.14510831,14.0443062 8.13055114,13.9354839 8.10143681,13.7738049 C8.07232248,13.6152351 8.03447384,13.4380101 7.99662522,13.2514574 C7.95877659,13.0586863 7.9151051,12.8721337 7.87725647,12.685581 C7.83940783,12.4990284 7.80155921,12.3497862 7.77244488,12.2316362 C7.8714336,12.1445783 7.95586516,12.0544112 8.02573955,11.9549164 C8.09561394,11.8523125 8.13055114,11.7497085 8.13055114,11.6439953 C8.13055114,11.5569374 8.10434823,11.4729887 8.04903102,11.3828216 C7.99662522,11.2926545 7.9325737,11.2180334 7.86269931,11.15274 C7.78117919,11.0781189 7.69965907,11.0034978 7.60940464,10.9288768 L6.86698924,10.9288768 C6.76800052,11.0034978 6.68356896,11.0781189 6.61369457,11.15274 C6.55255447,11.2180334 6.50014868,11.2895452 6.45065433,11.3766032 C6.40115996,11.4636611 6.37495708,11.5445005 6.37495708,11.6315585 C6.37495708,11.6968519 6.40989427,11.7808006 6.48559153,11.8865138 C6.56128878,11.992227 6.65154321,12.0948309 6.75926623,12.1881072 C6.7301519,12.2844928 6.68939184,12.4212981 6.63989747,12.6016323 C6.59040311,12.7788573 6.54382018,12.9685192 6.5001487,13.1675087 C6.4564772,13.363389 6.41571714,13.5499417 6.38077994,13.7240575 C6.34584275,13.8981733 6.33128558,14.025651 6.33128558,14.1127089 C6.33128558,14.1655655 6.36622277,14.2401865 6.44192002,14.3365721 C6.51761728,14.4329576 6.60496027,14.5293431 6.70977186,14.6226195 C6.81458345,14.719005 6.91648361,14.7998445 7.01547232,14.8682472 C7.11737247,14.9304314 7.19306974,14.9677419 7.23965266,14.9677419 L7.23965266,14.9677419 Z" id="形状"></path>
        </g>
    </g>
</svg>