<?xml version="1.0" encoding="UTF-8"?>
<svg width="16px" height="16px" viewBox="0 0 16 16" version="1.1" xmlns="http://www.w3.org/2000/svg" xmlns:xlink="http://www.w3.org/1999/xlink">
    <title>1.通用组件/2.Icon图标/2.Fill填充/工作台</title>
    <g id="1.通用组件/2.Icon图标/2.Fill填充/工作台" stroke="none" stroke-width="1" fill="none" fill-rule="evenodd">
        <g id="gongzuotai-06" transform="translate(0.002216, 1.011525)" fill="#595959">
            <path d="M13.5035461,13.6737589 L2.38297872,13.6737589 C2.07092199,13.6737589 1.78723404,13.4184397 1.78723404,13.0780142 C1.78723404,12.7659575 2.04255319,12.4822695 2.38297872,12.4822695 L13.5035461,12.4822695 C13.8156028,12.4822695 14.0992908,12.7375887 14.0992908,13.0780142 C14.0992908,13.3900709 13.8439716,13.6737589 13.5035461,13.6737589 Z M14.7234043,0 L1.16312058,0 C0.539007098,0 0,0.539007098 0,1.19148936 L0,10.0141844 C0,10.6666667 0.539007098,11.177305 1.16312058,11.177305 L14.6950355,11.177305 C15.3475177,11.177305 15.858156,10.6382979 15.858156,10.0141844 L15.858156,1.19148936 C15.8865248,0.539007098 15.3475177,0 14.7234043,0 L14.7234043,0 Z M3.97163122,7.82978723 C3.97163122,8.14184397 3.71631207,8.42553191 3.37588654,8.42553191 C3.035461,8.42553191 2.78014186,8.17021277 2.78014186,7.82978723 L2.78014186,5.61702128 C2.78014186,5.30496454 3.035461,5.0212766 3.37588654,5.0212766 C3.71631207,5.0212766 3.97163122,5.27659574 3.97163122,5.61702128 L3.97163122,7.82978723 Z M7.0070922,7.82978723 C7.0070922,8.14184397 6.75177306,8.42553191 6.41134752,8.42553191 C6.09929079,8.42553191 5.81560284,8.17021277 5.81560284,7.82978723 L5.81560284,3.82978723 C5.81560284,3.5177305 6.07092199,3.23404255 6.41134752,3.23404255 C6.72340426,3.23404255 7.0070922,3.4893617 7.0070922,3.82978723 L7.0070922,7.82978723 L7.0070922,7.82978723 Z M10.0425532,7.82978723 C10.0425532,8.14184397 9.78723404,8.42553191 9.44680851,8.42553191 C9.13475178,8.42553191 8.85106383,8.17021277 8.85106383,7.82978723 L8.85106383,4.31205675 C8.85106383,4.00000002 9.10638298,3.71631207 9.44680851,3.71631207 C9.75886524,3.71631207 10.0425532,3.97163122 10.0425532,4.31205675 L10.0425532,7.82978723 Z M13.106383,7.82978723 C13.106383,8.14184397 12.8510638,8.42553191 12.5106383,8.42553191 C12.1702128,8.42553191 11.9148936,8.17021277 11.9148936,7.82978723 L11.9148936,3.09219859 C11.9148936,2.78014186 12.1702128,2.49645391 12.5106383,2.49645391 C12.8510638,2.49645391 13.106383,2.75177306 13.106383,3.09219859 L13.106383,7.82978723 Z" id="形状"></path>
        </g>
    </g>
</svg>