<?xml version="1.0" encoding="UTF-8"?>
<svg width="16px" height="16px" viewBox="0 0 16 16" version="1.1" xmlns="http://www.w3.org/2000/svg" xmlns:xlink="http://www.w3.org/1999/xlink">
    <title>1.通用组件/2.Icon图标/2.Fill填充/基础资料</title>
    <g id="1.通用组件/2.Icon图标/2.Fill填充/基础资料" stroke="none" stroke-width="1" fill="none" fill-rule="evenodd">
        <g id="qingdanxinxishebeijichuxinxigongdanxinxi" transform="translate(1.010010, 0.000000)" fill="#595959">
            <path d="M3.68579398,0 L10.2629368,0 C11.1105559,0 11.5343654,0.423809526 11.5343654,1.27142858 L11.5343654,2.14 C11.5343654,2.98761905 11.1105559,3.41142858 10.2629368,3.41142858 L3.68579398,3.41142858 C2.83817492,3.41142858 2.4143654,2.98761905 2.4143654,2.14 L2.4143654,1.27142858 C2.4143654,0.423809526 2.83817492,0 3.68579398,0 Z M12.3315083,1.88 L12.1829368,1.88 L12.1829368,2.23428572 C12.1829368,3.24 11.4429368,4.06 10.5343654,4.06 L3.41722254,4.06 C2.50865112,4.06 1.76865112,3.24 1.76865112,2.23428572 L1.76865112,1.88 L1.61722254,1.88 C1.18681324,1.88151286 0.774633659,2.05394456 0.471359967,2.35936152 C0.168086276,2.66477849 -0.00143851281,3.07816214 3.93120145e-05,3.50857142 L3.93120145e-05,14.3657143 C-0.00296103859,14.7971109 0.165890501,15.2119648 0.469328989,15.5186199 C0.772767477,15.8252751 1.18581783,15.9984917 1.61722254,16 L12.3315083,16 C12.7619176,15.9984871 13.1740971,15.8260554 13.4773708,15.5206385 C13.7806445,15.2152215 13.9501693,14.8018379 13.9487308,14.3714286 L13.9487308,3.51428572 C13.9516918,3.08288909 13.7828403,2.66803521 13.4794018,2.36138006 C13.1759633,2.05472491 12.762913,1.88150832 12.3315083,1.88 Z M2.64865112,6.30857142 L6.18865112,6.30857142 C6.51371014,6.30857142 6.77722255,6.57208383 6.77722255,6.89714285 C6.77722255,7.22220188 6.51371014,7.48571428 6.18865112,7.48571428 L2.64865112,7.48571428 C2.32359209,7.48571428 2.06007969,7.22220188 2.06007969,6.89714285 C2.06007969,6.57208383 2.32359209,6.30857142 2.64865112,6.30857142 Z M2.64865112,13.6314286 C2.32359209,13.6314286 2.06007969,13.3679162 2.06007969,13.0428571 C2.06007969,12.7177981 2.32359209,12.4542857 2.64865112,12.4542857 L11.3000797,12.4542857 C11.6251387,12.4542857 11.8886511,12.7177981 11.8886511,13.0428571 C11.8886511,13.3679162 11.6251387,13.6314286 11.3000797,13.6314286 L2.64865112,13.6314286 Z M2.64865112,10.5571429 C2.42910898,10.5724669 2.21935883,10.4640299 2.1049235,10.2760455 C1.99048817,10.0880611 1.99048817,9.85193887 2.1049235,9.66395448 C2.21935883,9.47597009 2.42910898,9.36753305 2.64865112,9.38285714 L11.3000797,9.38285714 C11.5196218,9.36753305 11.729372,9.47597009 11.8438073,9.66395448 C11.9582426,9.85193887 11.9582426,10.0880611 11.8438073,10.2760455 C11.729372,10.4640299 11.5196218,10.5724669 11.3000797,10.5571429 L2.64865112,10.5571429 Z" id="形状"></path>
        </g>
    </g>
</svg>