<?xml version="1.0" encoding="UTF-8"?>
<svg width="16px" height="16px" viewBox="0 0 16 16" version="1.1" xmlns="http://www.w3.org/2000/svg" xmlns:xlink="http://www.w3.org/1999/xlink">
    <title>1.通用组件/2.Icon图标/2.Fill填充/进货</title>
    <g id="1.通用组件/2.Icon图标/2.Fill填充/进货" stroke="none" stroke-width="1" fill="none" fill-rule="evenodd">
        <g id="编组" fill="#595959">
            <path d="M16,5.33333333 L16,14.2222222 C16,15.2040618 15.2040618,16 14.2222222,16 L1.77777777,16 C0.795938219,16 0,15.2040618 0,14.2222222 L0,5.33333333 L16,5.33333333 Z M8,7 C7.58578642,7 7.24999997,7.33578644 7.24999997,7.75 L7.24999997,9.25000001 L5.74999999,9.25000001 C5.33578643,9.25000001 5,9.58578644 5,10 C5,10.4142136 5.33578643,10.75 5.74999999,10.75 L7.24999997,10.75 L7.24999997,12.25 C7.24999997,12.6642136 7.58578642,13 8,13 C8.41421355,13 8.74999999,12.6642136 8.74999999,12.25 L8.74999999,10.75 L10.25,10.75 C10.6642136,10.75 11,10.4142136 11,10 C11,9.58578644 10.6642136,9.25000001 10.25,9.25000001 L8.74999999,9.25000001 L8.74999999,7.75 C8.74999999,7.33578644 8.41421355,7 8,7 Z M7.55555556,0 L7.55555556,4.44444444 L0,4.44444444 L2.1488889,0.863111104 C2.47017884,0.327633874 3.04886308,0 3.67333333,0 L7.55555556,0 Z M12.3266667,0 C12.9511369,0 13.5298212,0.327633874 13.8511111,0.863111104 L16,4.44444444 L8.44444444,4.44444444 L8.44444444,0 L12.3266667,0 Z" id="形状结合"></path>
        </g>
    </g>
</svg>