<?xml version="1.0" encoding="UTF-8"?>
<svg width="16px" height="16px" viewBox="0 0 16 16" version="1.1" xmlns="http://www.w3.org/2000/svg" xmlns:xlink="http://www.w3.org/1999/xlink">
    <title>1.通用组件/2.Icon图标/2.Fill填充/库存管理</title>
    <g id="1.通用组件/2.Icon图标/2.Fill填充/库存管理" stroke="none" stroke-width="1" fill="none" fill-rule="evenodd">
        <rect id="矩形" fill="#000000" fill-rule="nonzero" opacity="0" x="0" y="0" width="16" height="16"></rect>
        <g id="库存_crm">
            <rect id="矩形" fill="#000000" fill-rule="nonzero" opacity="0" x="0" y="0" width="16" height="16"></rect>
            <path d="M3.170875,12.3755781 C2.92898437,12.3755781 2.73289062,12.5716719 2.73289062,12.8135625 C2.73289062,13.0554531 2.92898437,13.2515469 3.170875,13.2515469 L7.55071875,13.2515469 C7.79260937,13.2515469 7.98870312,13.0554531 7.98870312,12.8135625 C7.98870312,12.5716719 7.79260937,12.3755781 7.55071875,12.3755781 L3.170875,12.3755781 Z M3.17307812,9.74767187 C2.9311875,9.74767187 2.73509375,9.94376562 2.73509375,10.1856562 C2.73509375,10.4275469 2.9311875,10.6236406 3.17307812,10.6236406 L5.80540625,10.6236406 C6.04729687,10.6236406 6.24339062,10.4275469 6.24339062,10.1856562 C6.24339062,9.94376562 6.04729687,9.74767187 5.80540625,9.74767187 L3.17307812,9.74767187 Z M0.99359375,7.99573437 C0.99359375,7.51195312 1.38578125,7.11976562 1.8695625,7.11976562 L14.1331406,7.11976562 C14.6169375,7.11976562 15.0091094,7.51195312 15.0091094,7.99573437 L15.0091094,13.925375 C15.0091094,14.5208437 14.5264531,15.0034844 13.9309844,15.0034844 L2.07170312,15.0034844 C1.4763125,15.0034844 0.99359375,14.5208437 0.99359375,13.925375 L0.99359375,7.99573437 Z M8.4266875,5.3678125 L8.4266875,1.8639375 C8.4266875,1.38015625 8.818875,0.98796875 9.30265625,0.98796875 L11.7466719,0.98796875 C12.0946469,0.98796875 12.4211621,1.15616732 12.6232188,1.43946875 L14.99375,5.3678125 C14.9947813,5.3678125 14.9956875,5.37217188 14.9964688,5.38090625 L14.9964688,5.38901562 C15.0350469,5.82079688 14.625625,6.20210938 14.1938281,6.2406875 C14.1706042,6.24275473 14.1473001,6.24379688 14.1239844,6.24379688 L9.30265625,6.24379688 C8.818875,6.24379688 8.4266875,5.85159375 8.4266875,5.3678125 Z M6.68967188,6.24378125 L1.86835938,6.24378125 C1.84504363,6.24378125 1.82173954,6.24273911 1.79851563,6.24067188 C1.36671875,6.20209375 0.957296875,5.82078125 0.995875,5.389 L0.995875,5.38089063 C0.996640625,5.37217188 0.9975625,5.36779687 0.99859375,5.36779687 L3.36910938,1.43945312 C3.57116605,1.1561517 3.89768125,0.987953125 4.24565625,0.987953125 L6.68967188,0.987953125 C7.17345313,0.987953125 7.56564063,1.38014062 7.56564063,1.86392187 L7.56564063,5.3678125 C7.56564063,5.85159375 7.17345313,6.24378125 6.68967188,6.24378125 Z" id="形状" fill="#595959"></path>
        </g>
    </g>
</svg>