<?xml version="1.0" encoding="UTF-8"?>
<svg width="16px" height="16px" viewBox="0 0 16 16" version="1.1" xmlns="http://www.w3.org/2000/svg" xmlns:xlink="http://www.w3.org/1999/xlink">
    <title>1.通用组件/2.Icon图标/2.Fill填充/商品管理</title>
    <g id="1.通用组件/2.Icon图标/2.Fill填充/商品管理" stroke="none" stroke-width="1" fill="none" fill-rule="evenodd">
        <rect id="矩形" fill="#000000" fill-rule="nonzero" opacity="0" x="0" y="0" width="16" height="16"></rect>
        <g id="商品2">
            <rect id="矩形" fill="#000000" fill-rule="nonzero" opacity="0" x="0" y="0" width="16" height="16"></rect>
            <path d="M12.7344,1.6 L3.3096,1.6 C2.81948339,1.6 2.42204155,1.99708359 2.4216,2.4872 L1.6216,13.512 C1.6216,14.0024 2.0192,14.4 2.5096,14.4 L13.5344,14.4 C14.0248,14.4 14.4216,14.0024 14.4216,13.5128 L13.6216,2.488 C13.6216,1.99788339 13.2245164,1.60044155 12.7344,1.6 Z M11.6424,5.9952 C11.584,7.9296 10.0016,9.488 8.0536,9.488 C6.1096,9.488 4.5312,7.9376 4.4656,6.0096 C4.16353347,5.86624724 4.00190769,5.53202093 4.07710495,5.20623024 C4.15230221,4.88043956 4.44406233,4.65086135 4.7784,4.65435965 C5.1744,4.65435965 5.4952,4.9752 5.4952,5.3712 C5.49393638,5.57309439 5.40663406,5.76486848 5.2552,5.8984 C5.26267627,7.43969165 6.51309176,8.68581877 8.0544,8.688 C9.59079707,8.68586276 10.8388399,7.44674219 10.852,5.9104 C10.6902078,5.77784812 10.5955601,5.58034798 10.5936,5.3712 C10.5936,4.97532229 10.9145223,4.65435965 11.3104,4.65435965 C11.7062777,4.65435965 12.0272,4.97532229 12.0272,5.3712 C12.0244544,5.63442965 11.8763735,5.87456084 11.6424,5.9952 L11.6424,5.9952 Z" id="形状" fill="#595959"></path>
        </g>
    </g>
</svg>