<?xml version="1.0" encoding="UTF-8"?>
<svg width="16px" height="16px" viewBox="0 0 16 16" version="1.1" xmlns="http://www.w3.org/2000/svg" xmlns:xlink="http://www.w3.org/1999/xlink">
    <title>1.通用组件/2.Icon图标/2.Fill填充/审核中心</title>
    <g id="1.通用组件/2.Icon图标/2.Fill填充/审核中心" stroke="none" stroke-width="1" fill="none" fill-rule="evenodd">
        <rect id="矩形" fill="#000000" fill-rule="nonzero" opacity="0" x="0" y="0" width="16" height="16"></rect>
        <g id="审核">
            <rect id="矩形" fill="#000000" fill-rule="nonzero" opacity="0" x="0" y="0" width="16" height="16"></rect>
            <path d="M13.7007813,9.138125 L11.5676563,9.138125 C11.0946875,9.138125 10.6676563,8.8553125 10.4829688,8.42 L9.75296875,6.69921875 C9.64703125,6.449375 9.715,6.163125 9.916875,5.98171875 C10.6379688,5.33421875 11.0290625,4.3278125 10.799375,3.2403125 C10.5721875,2.16375 9.70125,1.29375 8.62421875,1.06890625 C6.77734375,0.68328125 5.15140625,2.08234375 5.15140625,3.86125 C5.15140625,4.71765625 5.53125,5.4815625 6.12921875,6.00375 C6.33734375,6.18546875 6.4109375,6.47578125 6.30296875,6.73015625 L5.58609375,8.42 C5.40140625,8.8553125 4.97421875,9.138125 4.50140625,9.138125 L2.2990625,9.138125 C1.9790625,9.138125 1.7196875,9.3975 1.7196875,9.7175 L1.7196875,11.9873438 C1.7196875,12.3073438 1.9790625,12.5667188 2.2990625,12.5667188 L13.7007813,12.5667188 C14.0207813,12.5667188 14.2801563,12.3073438 14.2801563,11.9873438 L14.2801563,9.71765625 C14.2803125,9.39765625 14.0209375,9.138125 13.7007813,9.138125 L13.7007813,9.138125 Z M13.4295313,13.714375 L2.57984375,13.714375 C2.4203125,13.714375 2.29109375,13.8435938 2.29109375,14.003125 L2.29109375,14.5684375 C2.29109375,14.7279688 2.4203125,14.8571875 2.57984375,14.8571875 L13.4295313,14.8571875 C13.5890625,14.8571875 13.7182813,14.7279688 13.7182813,14.5684375 L13.7182813,14.003125 C13.7182813,13.84375 13.5890625,13.714375 13.4295313,13.714375 Z" id="形状" fill="#595959"></path>
        </g>
    </g>
</svg>