<?xml version="1.0" encoding="UTF-8"?>
<svg width="16px" height="16px" viewBox="0 0 16 16" version="1.1" xmlns="http://www.w3.org/2000/svg" xmlns:xlink="http://www.w3.org/1999/xlink">
    <title>1.通用组件/2.Icon图标/2.Fill填充/设置</title>
    <g id="1.通用组件/2.Icon图标/2.Fill填充/设置" stroke="none" stroke-width="1" fill="none" fill-rule="evenodd">
        <g id="shezhi" transform="translate(0.006840, 0.013612)" fill="#595959">
            <path d="M15.9377918,6.93006459 C15.8918511,6.33383335 15.780994,6.27990289 15.1917537,6.32684236 C14.5395946,6.3787754 13.9883054,6.0541939 13.7635952,5.48592662 C13.5328926,4.90467606 13.6996776,4.30544869 14.2080221,3.88898566 C14.5505805,3.6083475 14.5925264,3.38064111 14.2819268,3.05206476 C13.8145295,2.55770218 13.3271579,2.08031771 12.8188133,1.62889975 C12.424322,1.27935045 12.2405589,1.3242925 11.906989,1.74475038 C11.4995144,2.25808849 10.8473553,2.41089147 10.2551189,2.13424816 C9.69983485,1.87458296 9.43917094,1.40019462 9.48211556,0.72706254 C9.51107822,0.26565746 9.37525334,0.103866068 8.91484697,0.0689111415 C8.55531055,0.0409472 8.19577413,0.0219716683 7.85820936,0 C7.50366652,0.0389497756 7.17309275,0.0679124293 6.84551512,0.111855781 C6.38710617,0.172777225 6.28823367,0.306604675 6.32818215,0.775999454 C6.3891036,1.48808131 6.09248604,2.02339111 5.50124838,2.26807561 C4.92798752,2.50576915 4.33475241,2.33498935 3.88433318,1.8036744 C3.61767699,1.48908002 3.38497703,1.44313926 3.09035691,1.72177998 C2.59499559,2.18717993 2.10862271,2.66656183 1.65720476,3.17590509 C1.27170181,3.61034494 1.31464643,3.75815435 1.76007212,4.12967533 C2.18352614,4.48321948 2.3672892,4.93563615 2.24944114,5.48293048 C2.12859697,6.03921324 1.77605152,6.39675223 1.22476234,6.52558612 C1.02202375,6.5725256 0.799310895,6.54256423 0.586585182,6.54056681 C0.296958614,6.53757067 0.114194267,6.66940069 0.0762432036,6.95303497 C-0.0286215925,7.74002026 -0.0326164413,8.52800426 0.110199418,9.31199341 C0.166127301,9.62159422 0.332912253,9.7414397 0.645509202,9.72246417 C0.810296729,9.71247705 0.977081682,9.67352727 1.13887307,9.68950667 C1.71612878,9.74643326 2.16954415,10.1299388 2.32534327,10.6702421 C2.48114239,11.2075493 2.29638062,11.7558424 1.83297811,12.1283621 C1.45147002,12.4349668 1.40952409,12.6476925 1.74109657,13.0002379 C2.20050423,13.4886082 2.67688999,13.9639953 3.18024099,14.4064248 C3.60868857,14.7829393 3.77147867,14.738996 4.12901767,14.2825845 C4.6193854,13.6553932 5.49825223,13.5715013 6.09947701,14.0858382 C6.50295679,14.4313926 6.61081771,14.8678299 6.55788596,15.3751757 C6.51893618,15.7496928 6.65675848,15.9654147 6.98533483,15.9724057 C7.72338322,15.9873864 8.46342901,15.9903825 9.19947998,15.9464392 C9.67886188,15.9174765 9.77373955,15.7466967 9.71980908,15.26332 C9.64091082,14.562224 9.93553093,14.0119335 10.5237725,13.7622554 C11.1180063,13.5105799 11.7202298,13.6813597 12.1606619,14.2266566 C12.4303142,14.5602265 12.667009,14.6091634 12.972615,14.3175394 C13.4789621,13.8351614 13.9713273,13.3348066 14.4357285,12.81248 C14.7732933,12.4329694 14.7253551,12.2282333 14.3188792,11.9216287 C13.979317,11.6659583 13.7875642,11.3263961 13.7635951,10.9039408 C13.7136595,10.0400547 14.4177517,9.38489943 15.2926237,9.47178741 C15.7390481,9.51573075 15.9577661,9.38889428 15.9677532,8.9993965 C15.9847313,8.31028499 15.9907236,7.61717866 15.9377918,6.93006459 Z M8.00701751,11.4752042 C6.08749248,11.4542313 4.54747812,9.89224526 4.57244594,7.99169577 C4.59741375,6.11611408 6.14541781,4.57410231 7.99503296,4.5820611 C9.90656829,4.5900817 11.483535,6.16205485 11.4635608,8.0426301 C11.4445852,9.94817314 9.88459662,11.4961772 8.00701751,11.4752042 Z" id="形状"></path>
        </g>
    </g>
</svg>