<?xml version="1.0" encoding="UTF-8"?>
<svg width="16px" height="16px" viewBox="0 0 16 16" version="1.1" xmlns="http://www.w3.org/2000/svg" xmlns:xlink="http://www.w3.org/1999/xlink">
    <title>1.通用组件/2.Icon图标/2.Fill填充/提现</title>
    <g id="1.通用组件/2.Icon图标/2.Fill填充/提现" stroke="none" stroke-width="1" fill="none" fill-rule="evenodd">
        <rect id="矩形" fill="#000000" fill-rule="nonzero" opacity="0" x="0" y="0" width="16" height="16"></rect>
        <g id="财务">
            <rect id="矩形" fill="#000000" fill-rule="nonzero" opacity="0" x="0" y="0" width="16" height="16"></rect>
            <path d="M14.989984,13.34728 C14.989984,13.542352 14.956656,13.72448 14.88992,13.893856 C14.823184,14.063216 14.728256,14.212032 14.60512,14.340352 C14.481936,14.468704 14.338176,14.568768 14.173952,14.64056 C14.009792,14.712432 13.830144,14.748336 13.635072,14.748336 L2.457264,14.748336 C2.262272,14.748336 2.077488,14.712432 1.902976,14.64056 C1.728528,14.568768 1.574576,14.468704 1.44112,14.340352 C1.307648,14.212016 1.202432,14.0632 1.125504,13.893856 C1.04848,13.72448 1.010016,13.542336 1.010016,13.34728 L1.010016,5.664416 C1.010016,5.274432 1.145968,4.943408 1.417984,4.671392 C1.69,4.399392 2.021024,4.263344 2.411088,4.263344 L13.588912,4.263344 C13.978976,4.263344 14.31,4.399392 14.582016,4.671392 C14.854032,4.943408 14.989984,5.274432 14.989984,5.664416 L14.989984,7.758384 L11.495008,7.758384 C11.104944,7.758384 10.77392,7.891792 10.501904,8.158656 C10.229888,8.425536 10.093936,8.753984 10.093936,9.144048 C10.104224,9.410912 10.160672,9.647024 10.263312,9.852304 C10.345392,10.026816 10.481424,10.185904 10.67128,10.329568 C10.8612,10.473248 11.135792,10.54512 11.495008,10.54512 L14.989984,10.54512 L14.989984,13.34728 L14.989984,13.34728 Z M12.89608,3.555104 L5.906064,3.555104 C6.460352,3.26776 6.983824,2.990608 7.476496,2.723744 C7.9076,2.497904 8.333632,2.27208 8.754464,2.046256 C9.17528,1.820496 9.503744,1.645984 9.73984,1.522784 C10.099072,1.327792 10.419824,1.237936 10.702128,1.253344 C10.984336,1.268752 11.223008,1.317504 11.418,1.399584 C11.64384,1.512496 11.838896,1.661312 12.003136,1.846112 L12.89608,3.555104 Z M10.802192,9.144048 C10.802192,8.949056 10.868912,8.784832 11.00232,8.651344 C11.135808,8.517936 11.300032,8.451216 11.495024,8.451216 C11.690016,8.451216 11.85424,8.517936 11.987728,8.651344 C12.121136,8.784816 12.187856,8.949056 12.187856,9.144048 C12.187856,9.33904 12.121136,9.50584 11.987728,9.644448 C11.85424,9.782976 11.690016,9.852304 11.495024,9.852304 C11.300032,9.852304 11.135808,9.782992 11.00232,9.644448 C10.868912,9.50584 10.802192,9.33904 10.802192,9.144048 L10.802192,9.144048 Z" id="形状" fill="#595959"></path>
        </g>
    </g>
</svg>