<?xml version="1.0" encoding="UTF-8"?>
<svg width="16px" height="16px" viewBox="0 0 16 16" version="1.1" xmlns="http://www.w3.org/2000/svg" xmlns:xlink="http://www.w3.org/1999/xlink">
    <title>1.通用组件/2.Icon图标/2.Fill填充/销售</title>
    <g id="1.通用组件/2.Icon图标/2.Fill填充/销售" stroke="none" stroke-width="1" fill="none" fill-rule="evenodd">
        <g id="编组" transform="translate(0.007725, 0.007725)" fill="#595959">
            <path d="M5.24116854,6.57366292 C6.00916854,7.23523596 6.86202247,7.48332584 7.91011236,7.48332584 L8.03559551,7.48152809 C8.98876404,7.45420225 9.81285393,7.15182022 10.5258427,6.57366292 C10.606382,6.51146067 10.7412135,6.42588764 10.9022921,6.57366292 C11.5901124,7.24746067 12.426427,7.51604494 13.4292135,7.48116854 C13.7148758,7.47155216 13.9982269,7.42638024 14.2727191,7.34669663 C14.5067865,7.27910112 14.741573,7.44557303 14.741573,7.69078652 L14.741573,13.6449438 C14.741573,14.8462022 13.7754607,15.8202247 12.5839101,15.8202247 L3.23631461,15.8202247 C2.04476404,15.8202247 1.07901124,14.8462022 1.07901124,13.6449438 L1.07865169,7.69114607 C1.07865169,7.44557303 1.31307865,7.27910112 1.54678652,7.34669663 C1.82140789,7.42635132 2.10487429,7.47152236 2.39065169,7.48116854 L2.50642697,7.48368539 C3.46570787,7.48620225 4.21465169,7.22121348 4.87514607,6.57366292 C5.04197753,6.41797753 5.11244944,6.45932584 5.24116854,6.57366292 Z M13.6629213,4.0332182e-12 C14.8543671,4.0332182e-12 15.8202247,0.965857618 15.8202247,2.15730337 L15.8202247,3.86049438 C15.8202247,5.23217978 14.7635056,6.42301124 13.3925393,6.47047191 C12.4586209,6.50377925 11.5831344,6.01689026 11.1187416,5.20593258 C10.9857079,4.97366292 10.6700225,4.94669663 10.5107416,5.16170787 C9.90101909,5.98653267 8.93583,6.47279688 7.91011236,6.47191011 C6.88439472,6.47279688 5.91920563,5.98653267 5.30948315,5.16170787 C5.1498427,4.94669663 4.83451685,4.97366292 4.7011236,5.20593258 C4.23690923,6.01689226 3.36151588,6.50380645 2.42768539,6.47047191 C1.0567191,6.42301124 6.21724894e-15,5.23433708 6.21724894e-15,3.86265169 L6.21724894e-15,2.42804494 C6.21724894e-15,0.965033708 0.96611236,4.0332182e-12 2.15730337,4.0332182e-12 L13.6629213,4.0332182e-12 Z" id="形状结合"></path>
        </g>
    </g>
</svg>