<?xml version="1.0" encoding="UTF-8"?>
<svg width="16px" height="16px" viewBox="0 0 16 16" version="1.1" xmlns="http://www.w3.org/2000/svg" xmlns:xlink="http://www.w3.org/1999/xlink">
    <title>1.通用组件/2.Icon图标/2.Fill填充/诊所采购</title>
    <g id="1.通用组件/2.Icon图标/2.Fill填充/诊所采购" stroke="none" stroke-width="1" fill="none" fill-rule="evenodd">
        <g id="lincaiwuzicaigoushenqing-245" fill="#595959">
            <path d="M15.3866207,5.02775546 C15.7239793,5.02775546 16,5.28478357 16,5.59892905 C16,5.91307453 15.7239793,6.17010263 15.3866207,6.17010263 L15.2835793,6.17019099 C15.3686154,6.40799415 15.3964658,6.66824464 15.3528848,6.93547523 L14.1138585,14.594913 C13.981982,15.4031236 13.2367261,16 12.3595936,16 L3.63733947,16 C2.759967,15.9998835 2.01439231,15.4027118 1.88307456,14.594913 L0.644048304,6.93547523 C0.600467254,6.66824464 0.62831765,6.40799415 0.713353781,6.17019099 L0.613379331,6.17010263 C0.276020702,6.17010263 3.17079696e-13,5.91307451 3.17079696e-13,5.59892905 C3.17079696e-13,5.28478358 0.276020702,5.02775546 0.613379331,5.02775546 L15.3866207,5.02775546 Z M10.2066322,10.9765283 L5.79030095,10.9765283 C5.4529423,10.9765283 5.1769216,11.2335564 5.1769216,11.5477019 C5.1769216,11.8618474 5.45294232,12.1188755 5.79030095,12.1188755 L10.2066322,12.1188755 C10.5453922,12.1188755 10.8200115,11.8631524 10.8200115,11.5477019 C10.8200115,11.2322515 10.5453922,10.9765283 10.2066322,10.9765283 Z M11.1359019,8.92601516 L4.86103125,8.92601516 C4.5236726,8.92601516 4.2476519,9.18304329 4.2476519,9.49718876 C4.2476519,9.81133422 4.52367262,10.0683623 4.86103125,10.0683623 L11.1389688,10.0683623 C11.4763274,10.0683623 11.7492812,9.81133424 11.7492812,9.49718876 C11.7492812,9.18304327 11.4732605,8.92601516 11.1359019,8.92601516 Z M6.4803527,0.167068273 C6.71957064,0.389825971 6.71957064,0.752521201 6.4803527,0.975278882 L3.18037186,4.0453369 C3.06076288,4.15671575 2.90435115,4.2138331 2.74793942,4.2138331 C2.49988761,4.21290328 2.27675159,4.07321291 2.18220397,3.8596644 C2.08765636,3.6461159 2.14023342,3.4005759 2.31550699,3.23712627 L5.61242093,0.167068273 C5.85163887,-0.0556894244 6.24113476,-0.0556894244 6.4803527,0.167068273 Z M10.3875791,0.167068273 L13.684493,3.23712627 C13.8597666,3.4005759 13.9123436,3.6461159 13.817796,3.8596644 C13.7232484,4.07321291 13.5001124,4.21290328 13.2520606,4.2138331 C13.0956488,4.2138331 12.9392371,4.15671575 12.8196281,4.0453369 L9.5196473,0.975278882 C9.28042936,0.752521185 9.28042936,0.389825954 9.5196473,0.167068273 C9.75886524,-0.0556894077 10.1483611,-0.0556894244 10.3875791,0.167068273 Z" id="形状结合"></path>
        </g>
    </g>
</svg>