<?xml version="1.0" encoding="UTF-8"?>
<svg width="16px" height="16px" viewBox="0 0 16 16" version="1.1" xmlns="http://www.w3.org/2000/svg" xmlns:xlink="http://www.w3.org/1999/xlink">
    <title>1.通用组件/2.Icon图标/2.Fill填充/资质认证</title>
    <g id="1.通用组件/2.Icon图标/2.Fill填充/资质认证" stroke="none" stroke-width="1" fill="none" fill-rule="evenodd">
        <g id="资质认证">
            <rect id="矩形" fill="#000000" fill-rule="nonzero" opacity="0" x="0" y="0" width="16" height="16"></rect>
            <path d="M12.9983771,5.52597034 L13.333861,4.39865691 C13.3969739,4.18681916 13.3355524,3.95749141 13.175009,3.80555622 L12.3207099,2.99697006 L12.0477116,1.85288403 C11.9961786,1.63789422 11.8284367,1.46997641 11.6134469,1.4188112 L10.4695367,1.14562098 L9.66095055,0.291497781 C9.5502587,0.174508222 9.39631267,0.108166365 9.23525603,0.108166365 C9.17946997,0.108166365 9.12298037,0.116049094 9.06786584,0.132469922 L7.94063237,0.468129672 L6.81333494,0.132469922 C6.75912082,0.116321974 6.70284842,0.108166365 6.64628053,0.108166365 C6.48515146,0.108166365 6.33111187,0.174417872 6.22041012,0.291497781 L5.41180797,1.14562098 L4.26772195,1.41879522 C4.05272502,1.47011787 3.88488467,1.63802623 3.83364913,1.85304394 L3.56047488,2.99695408 L2.70635169,3.80554023 C2.54578888,3.95737298 2.48451853,4.18672103 2.54751569,4.39864092 L2.88299956,5.52595434 L2.54751569,6.65309189 C2.48445247,6.86497684 2.54585591,7.09432186 2.70635169,7.24635248 L3.56047488,8.05477875 L3.83364912,9.19870487 C3.88490485,9.41371131 4.0527363,9.58161077 4.26772195,9.63295359 L5.41180797,9.90612783 L6.22041012,10.760267 C6.33111737,10.8773351 6.48515625,10.9435669 6.64628053,10.9435669 C6.70208258,10.9435669 6.75822041,10.9357157 6.81333494,10.919103 L7.94064836,10.5836191 L9.06788184,10.919103 C9.12218253,10.9353971 9.17857937,10.9435669 9.23527202,10.9435669 C9.3963231,10.9435669 9.55026699,10.8772416 9.66096655,10.760267 L10.4695527,9.90612783 L11.6134628,9.63295359 C11.8284662,9.58157339 11.9963394,9.41370635 12.0477275,9.19870487 L12.3207259,8.05477875 L13.1748651,7.24635248 C13.3354119,7.09435984 13.397034,6.86497981 13.333861,6.65309189 L12.9983771,5.52597034 Z M7.94063237,2.61903506 C9.55876405,2.61903506 10.870576,3.93068714 10.870576,5.54889875 C10.870576,7.16695047 9.55876405,8.47877844 7.94063237,8.47877844 C6.32240477,8.47877844 5.01092856,7.16696647 5.01092856,5.54889875 C5.01092856,3.93068714 6.32242075,2.61903506 7.94063237,2.61903506 Z M3.51732022,10.598521 L2.15002598,13.9111324 C2.15002598,13.9111324 1.75565416,14.6473198 2.62348003,14.5947795 C3.49095416,14.5422393 4.22731742,14.5684295 4.22731742,14.5684295 L5.33133469,15.6464324 C5.33133469,15.6464324 5.75207258,16.1986169 6.06769797,15.6464324 C6.38298758,15.0942639 7.67153536,11.7289203 7.67153536,11.7289203 C7.67153536,11.7289203 6.14644442,12.3862014 5.14750769,11.4398209 C4.14825119,10.4932486 3.51732022,10.598521 3.51732022,10.598521 L3.51732022,10.598521 Z M12.4826638,10.598521 L13.849958,13.9111324 C13.849958,13.9111324 14.2443139,14.6473198 13.3766639,14.5947795 C12.5089979,14.5422393 11.7730024,14.5684295 11.7730024,14.5684295 L10.6686333,15.6464324 C10.6686333,15.6464324 10.2478954,16.1986169 9.93260583,15.6464324 C9.61696447,15.0942639 8.32876844,11.7289203 8.32876844,11.7289203 C8.32876844,11.7289203 9.85352361,12.3862014 10.8527961,11.4398209 C11.8517328,10.4932486 12.4826638,10.598521 12.4826638,10.598521 L12.4826638,10.598521 Z" id="形状" fill="#595959"></path>
        </g>
    </g>
</svg>