<?xml version="1.0" encoding="UTF-8"?>
<svg width="20px" height="20px" viewBox="0 0 20 20" version="1.1" xmlns="http://www.w3.org/2000/svg" xmlns:xlink="http://www.w3.org/1999/xlink">
    <path d="M18.125,3.125 L1.875,3.125 C1.52929688,3.125 1.25,3.40429688 1.25,3.75 L1.25,16.25 C1.25,16.5957031 1.52929688,16.875 1.875,16.875 L18.125,16.875 C18.4707031,16.875 18.75,16.5957031 18.75,16.25 L18.75,3.75 C18.75,3.40429688 18.4707031,3.125 18.125,3.125 Z M17.34375,15.46875 L2.65625,15.46875 L2.65625,4.53125 L17.34375,4.53125 L17.34375,15.46875 Z M11.9199219,9.296875 L14.3300781,9.296875 C14.3554687,9.296875 14.375,9.2265625 14.375,9.140625 L14.375,8.203125 C14.375,8.1171875 14.3554687,8.046875 14.3300781,8.046875 L11.9199219,8.046875 C11.8945312,8.046875 11.875,8.1171875 11.875,8.203125 L11.875,9.140625 C11.875,9.2265625 11.8945312,9.296875 11.9199219,9.296875 Z M12.0136719,12.109375 L15.640625,12.109375 C15.7167969,12.109375 15.7792969,12.0390625 15.7792969,11.953125 L15.7792969,11.015625 C15.7792969,10.9296875 15.7167969,10.859375 15.640625,10.859375 L12.0136719,10.859375 C11.9375,10.859375 11.875,10.9296875 11.875,11.015625 L11.875,11.953125 C11.875,12.0390625 11.9375,12.109375 12.0136719,12.109375 L12.0136719,12.109375 Z M4.375,13.1445312 L5.23242187,13.1445312 C5.31445312,13.1445312 5.38085937,13.0800781 5.38671875,12.9980469 C5.4609375,12.0117188 6.28515625,11.2304688 7.28515625,11.2304688 C8.28515625,11.2304688 9.109375,12.0117188 9.18359375,12.9980469 C9.18945312,13.0800781 9.25585937,13.1445312 9.33789062,13.1445312 L10.1953125,13.1445312 C10.2851562,13.1445312 10.3554687,13.0703125 10.3515625,12.9804688 C10.296875,11.9394531 9.7265625,11.0332031 8.89453125,10.5175781 C9.24804687,10.1289062 9.46289062,9.61132812 9.46289062,9.04296875 C9.46289062,7.83398438 8.48828125,6.85546875 7.28710937,6.85546875 C6.0859375,6.85546875 5.11132812,7.83398438 5.11132812,9.04296875 C5.11132812,9.61132812 5.32617187,10.1269531 5.6796875,10.5175781 C4.84570312,11.0351562 4.27734375,11.9394531 4.22265625,12.9804688 C4.21484375,13.0703125 4.28515625,13.1445312 4.375,13.1445312 L4.375,13.1445312 Z M7.28515625,8.02734375 C7.84179687,8.02734375 8.29492187,8.48242188 8.29492187,9.04296875 C8.29492187,9.60351562 7.84179687,10.0585938 7.28515625,10.0585938 C6.72851562,10.0585938 6.27539062,9.60351562 6.27539062,9.04296875 C6.27539062,8.48242188 6.72851562,8.02734375 7.28515625,8.02734375 Z"></path>
</svg>