<?xml version="1.0" encoding="UTF-8"?>
<svg width="32px" height="32px" viewBox="0 0 32 32" version="1.1" xmlns="http://www.w3.org/2000/svg" xmlns:xlink="http://www.w3.org/1999/xlink">
    <g id="页面-1" stroke="none" stroke-width="1" fill="none" fill-rule="evenodd">
        <g id="全球找药" transform="translate(-705.000000, -196.000000)">
            <g id="编组-7" transform="translate(360.000000, 184.000000)">
                <g id="id-card-fill" transform="translate(345.000000, 12.000000)">
                    <rect id="矩形" fill="#000000" fill-rule="nonzero" opacity="0" x="0" y="0" width="32" height="32"></rect>
                    <path d="M5,5 L27,5 C28.6568542,5 30,6.34314575 30,8 L30,24 C30,25.6568542 28.6568542,27 27,27 L5,27 C3.34314575,27 2,25.6568542 2,24 L2,8 C2,6.34314575 3.34314575,5 5,5 Z M11.65625,12.84375 C10.765625,12.84375 10.040625,13.571875 10.040625,14.46875 C10.040625,15.365625 10.765625,16.09375 11.65625,16.09375 C12.546875,16.09375 13.271875,15.365625 13.271875,14.46875 C13.271875,13.571875 12.546875,12.84375 11.65625,12.84375 Z M19,13.125 C19,12.9875 19.03125,12.875 19.071875,12.875 L22.928125,12.875 C22.96875,12.875 23,12.9875 23,13.125 L23,14.625 C23,14.7625 22.96875,14.875 22.928125,14.875 L19.071875,14.875 C19.03125,14.875 19,14.7625 19,14.625 L19,13.125 Z M16.3125,21.03125 L14.940625,21.03125 C14.809375,21.03125 14.703125,20.928125 14.69375,20.796875 C14.575,19.21875 13.25625,17.96875 11.65625,17.96875 C10.05625,17.96875 8.7375,19.21875 8.61875,20.796875 C8.609375,20.928125 8.503125,21.03125 8.371875,21.03125 L7,21.03125 C6.85625,21.03125 6.74375,20.9125 6.75,20.76875 C6.8375,19.103125 7.75,17.653125 9.08125,16.828125 C8.515625,16.20625 8.171875,15.378125 8.171875,14.46875 C8.171875,12.534375 9.73125,10.96875 11.653125,10.96875 C13.575,10.96875 15.134375,12.534375 15.134375,14.46875 C15.134375,15.378125 14.790625,16.203125 14.225,16.828125 C15.559375,17.65625 16.46875,19.103125 16.55625,20.76875 C16.56875,20.9125 16.45625,21.03125 16.3125,21.03125 Z M25.028125,19.375 L19.221875,19.375 C19.1,19.375 19,19.2625 19,19.125 L19,17.625 C19,17.4875 19.1,17.375 19.221875,17.375 L25.025,17.375 C25.146875,17.375 25.246875,17.4875 25.246875,17.625 L25.246875,19.125 L25.25,19.125 C25.25,19.2625 25.15,19.375 25.028125,19.375 Z" id="形状" fill="#F5222D"></path>
                </g>
            </g>
        </g>
    </g>
</svg>