<svg t="1682234822862" class="icon" viewBox="0 0 1024 1024" version="1.1" xmlns="http://www.w3.org/2000/svg" p-id="1742" width="200" height="200"><path d="M1017.984 191.36c0-23.1936-18.8928-41.984-42.1632-41.984h-708.352a42.24 42.24 0 0 0-14.72 2.6112L214.8096 34.7904A42.1888 42.1888 0 0 0 168.0128 6.5792a41.5488 41.5488 0 0 0-1.7664-0.0512H48.1792C24.8832 6.528 6.016 25.344 6.016 48.5376s18.8928 42.0096 42.1632 42.0096h96.1024l168.6784 521.0624-123.2896 151.7568a41.8816 41.8816 0 0 0 6.2464 59.0592 42.24 42.24 0 0 0 39.168 7.424h715.4176c23.296 0 42.1888-18.7904 42.1888-41.984 0-23.2192-18.8928-42.0096-42.1888-42.0096H312.3712l68.2496-84.0192h460.288c22.9888 0 41.6768-18.3552 42.112-41.1648l0.1536-0.384 132.4288-398.7968c2.3552-7.0656 2.7136-14.2848 1.3824-21.0944 0.64-2.9184 0.9984-5.9392 0.9984-9.0368zM808.448 577.8176H390.6304L279.1168 233.3696h643.7376L808.448 577.8176zM520.448 493.824c23.296 0 42.1632-18.7904 42.1632-41.984v-109.2352c0-23.1936-18.8928-41.984-42.1888-41.984-23.296 0-42.1376 18.7904-42.1376 41.984v109.2352c0 23.1936 18.8672 41.984 42.1376 41.984z m185.5232 0c23.296 0 42.1632-18.7904 42.1632-41.984v-109.2352c0-23.1936-18.8928-41.984-42.1632-41.984-23.296 0-42.1632 18.7904-42.1632 41.984v109.2352c0 23.1936 18.8672 41.984 42.1632 41.984zM326.4768 888.6784a67.328 67.328 0 0 0-67.456 67.2 67.328 67.328 0 0 0 67.456 67.2 67.328 67.328 0 0 0 67.456-67.2 67.328 67.328 0 0 0-67.456-67.2z m522.8544 0a67.328 67.328 0 0 0-67.4816 67.2 67.328 67.328 0 0 0 67.4816 67.2 67.328 67.328 0 0 0 67.456-67.2 67.328 67.328 0 0 0-67.456-67.2z" p-id="1743"></path></svg>